<svg xmlns="http://www.w3.org/2000/svg" width="1920" height="1103" style="cursor:move"><g transform="translate(-679.0324303873306,-375.6836219947023) scale(1.64718203453516)"><line x1="678.667" x2="909.667" y1="241.5" y2="321.5" class="link" style="stroke-width:.5;stroke:#505050;opacity:1"/><line x1="678.667" x2="909.667" y1="241.5" y2="361.5" class="link" style="stroke-width:.5;stroke:#505050;opacity:1"/><line x1="678.667" x2="909.667" y1="241.5" y2="401.5" class="link" style="stroke-width:.5;stroke:#505050;opacity:1"/><line x1="678.667" x2="909.667" y1="241.5" y2="441.5" class="link" style="stroke-width:.5;stroke:#505050;opacity:1"/><line x1="678.667" x2="909.667" y1="241.5" y2="481.5" class="link" style="stroke-width:.5;stroke:#505050;opacity:1"/><line x1="678.667" x2="909.667" y1="241.5" y2="521.5" class="link" style="stroke-width:.5;stroke:#505050;opacity:1"/><line x1="678.667" x2="909.667" y1="241.5" y2="561.5" class="link" style="stroke-width:.5;stroke:#505050;opacity:1"/><line x1="678.667" x2="909.667" y1="241.5" y2="601.5" class="link" style="stroke-width:.5;stroke:#505050;opacity:1"/><line x1="678.667" x2="909.667" y1="241.5" y2="641.5" class="link" style="stroke-width:.5;stroke:#505050;opacity:1"/><line x1="678.667" x2="909.667" y1="241.5" y2="681.5" class="link" style="stroke-width:.5;stroke:#505050;opacity:1"/><line x1="678.667" x2="909.667" y1="241.5" y2="721.5" class="link" style="stroke-width:.5;stroke:#505050;opacity:1"/><line x1="678.667" x2="909.667" y1="241.5" y2="761.5" class="link" style="stroke-width:.5;stroke:#505050;opacity:1"/><line x1="678.667" x2="909.667" y1="281.5" y2="321.5" class="link" style="stroke-width:.5;stroke:#505050;opacity:1"/><line x1="678.667" x2="909.667" y1="281.5" y2="361.5" class="link" style="stroke-width:.5;stroke:#505050;opacity:1"/><line x1="678.667" x2="909.667" y1="281.5" y2="401.5" class="link" style="stroke-width:.5;stroke:#505050;opacity:1"/><line x1="678.667" x2="909.667" y1="281.5" y2="441.5" class="link" style="stroke-width:.5;stroke:#505050;opacity:1"/><line x1="678.667" x2="909.667" y1="281.5" y2="481.5" class="link" style="stroke-width:.5;stroke:#505050;opacity:1"/><line x1="678.667" x2="909.667" y1="281.5" y2="521.5" class="link" style="stroke-width:.5;stroke:#505050;opacity:1"/><line x1="678.667" x2="909.667" y1="281.5" y2="561.5" class="link" style="stroke-width:.5;stroke:#505050;opacity:1"/><line x1="678.667" x2="909.667" y1="281.5" y2="601.5" class="link" style="stroke-width:.5;stroke:#505050;opacity:1"/><line x1="678.667" x2="909.667" y1="281.5" y2="641.5" class="link" style="stroke-width:.5;stroke:#505050;opacity:1"/><line x1="678.667" x2="909.667" y1="281.5" y2="681.5" class="link" style="stroke-width:.5;stroke:#505050;opacity:1"/><line x1="678.667" x2="909.667" y1="281.5" y2="721.5" class="link" style="stroke-width:.5;stroke:#505050;opacity:1"/><line x1="678.667" x2="909.667" y1="281.5" y2="761.5" class="link" style="stroke-width:.5;stroke:#505050;opacity:1"/><line x1="678.667" x2="909.667" y1="321.5" y2="321.5" class="link" style="stroke-width:.5;stroke:#505050;opacity:1"/><line x1="678.667" x2="909.667" y1="321.5" y2="361.5" class="link" style="stroke-width:.5;stroke:#505050;opacity:1"/><line x1="678.667" x2="909.667" y1="321.5" y2="401.5" class="link" style="stroke-width:.5;stroke:#505050;opacity:1"/><line x1="678.667" x2="909.667" y1="321.5" y2="441.5" class="link" style="stroke-width:.5;stroke:#505050;opacity:1"/><line x1="678.667" x2="909.667" y1="321.5" y2="481.5" class="link" style="stroke-width:.5;stroke:#505050;opacity:1"/><line x1="678.667" x2="909.667" y1="321.5" y2="521.5" class="link" style="stroke-width:.5;stroke:#505050;opacity:1"/><line x1="678.667" x2="909.667" y1="321.5" y2="561.5" class="link" style="stroke-width:.5;stroke:#505050;opacity:1"/><line x1="678.667" x2="909.667" y1="321.5" y2="601.5" class="link" style="stroke-width:.5;stroke:#505050;opacity:1"/><line x1="678.667" x2="909.667" y1="321.5" y2="641.5" class="link" style="stroke-width:.5;stroke:#505050;opacity:1"/><line x1="678.667" x2="909.667" y1="321.5" y2="681.5" class="link" style="stroke-width:.5;stroke:#505050;opacity:1"/><line x1="678.667" x2="909.667" y1="321.5" y2="721.5" class="link" style="stroke-width:.5;stroke:#505050;opacity:1"/><line x1="678.667" x2="909.667" y1="321.5" y2="761.5" class="link" style="stroke-width:.5;stroke:#505050;opacity:1"/><line x1="678.667" x2="909.667" y1="361.5" y2="321.5" class="link" style="stroke-width:.5;stroke:#505050;opacity:1"/><line x1="678.667" x2="909.667" y1="361.5" y2="361.5" class="link" style="stroke-width:.5;stroke:#505050;opacity:1"/><line x1="678.667" x2="909.667" y1="361.5" y2="401.5" class="link" style="stroke-width:.5;stroke:#505050;opacity:1"/><line x1="678.667" x2="909.667" y1="361.5" y2="441.5" class="link" style="stroke-width:.5;stroke:#505050;opacity:1"/><line x1="678.667" x2="909.667" y1="361.5" y2="481.5" class="link" style="stroke-width:.5;stroke:#505050;opacity:1"/><line x1="678.667" x2="909.667" y1="361.5" y2="521.5" class="link" style="stroke-width:.5;stroke:#505050;opacity:1"/><line x1="678.667" x2="909.667" y1="361.5" y2="561.5" class="link" style="stroke-width:.5;stroke:#505050;opacity:1"/><line x1="678.667" x2="909.667" y1="361.5" y2="601.5" class="link" style="stroke-width:.5;stroke:#505050;opacity:1"/><line x1="678.667" x2="909.667" y1="361.5" y2="641.5" class="link" style="stroke-width:.5;stroke:#505050;opacity:1"/><line x1="678.667" x2="909.667" y1="361.5" y2="681.5" class="link" style="stroke-width:.5;stroke:#505050;opacity:1"/><line x1="678.667" x2="909.667" y1="361.5" y2="721.5" class="link" style="stroke-width:.5;stroke:#505050;opacity:1"/><line x1="678.667" x2="909.667" y1="361.5" y2="761.5" class="link" style="stroke-width:.5;stroke:#505050;opacity:1"/><line x1="678.667" x2="909.667" y1="401.5" y2="321.5" class="link" style="stroke-width:.5;stroke:#505050;opacity:1"/><line x1="678.667" x2="909.667" y1="401.5" y2="361.5" class="link" style="stroke-width:.5;stroke:#505050;opacity:1"/><line x1="678.667" x2="909.667" y1="401.5" y2="401.5" class="link" style="stroke-width:.5;stroke:#505050;opacity:1"/><line x1="678.667" x2="909.667" y1="401.5" y2="441.5" class="link" style="stroke-width:.5;stroke:#505050;opacity:1"/><line x1="678.667" x2="909.667" y1="401.5" y2="481.5" class="link" style="stroke-width:.5;stroke:#505050;opacity:1"/><line x1="678.667" x2="909.667" y1="401.5" y2="521.5" class="link" style="stroke-width:.5;stroke:#505050;opacity:1"/><line x1="678.667" x2="909.667" y1="401.5" y2="561.5" class="link" style="stroke-width:.5;stroke:#505050;opacity:1"/><line x1="678.667" x2="909.667" y1="401.5" y2="601.5" class="link" style="stroke-width:.5;stroke:#505050;opacity:1"/><line x1="678.667" x2="909.667" y1="401.5" y2="641.5" class="link" style="stroke-width:.5;stroke:#505050;opacity:1"/><line x1="678.667" x2="909.667" y1="401.5" y2="681.5" class="link" style="stroke-width:.5;stroke:#505050;opacity:1"/><line x1="678.667" x2="909.667" y1="401.5" y2="721.5" class="link" style="stroke-width:.5;stroke:#505050;opacity:1"/><line x1="678.667" x2="909.667" y1="401.5" y2="761.5" class="link" style="stroke-width:.5;stroke:#505050;opacity:1"/><line x1="678.667" x2="909.667" y1="441.5" y2="321.5" class="link" style="stroke-width:.5;stroke:#505050;opacity:1"/><line x1="678.667" x2="909.667" y1="441.5" y2="361.5" class="link" style="stroke-width:.5;stroke:#505050;opacity:1"/><line x1="678.667" x2="909.667" y1="441.5" y2="401.5" class="link" style="stroke-width:.5;stroke:#505050;opacity:1"/><line x1="678.667" x2="909.667" y1="441.5" y2="441.5" class="link" style="stroke-width:.5;stroke:#505050;opacity:1"/><line x1="678.667" x2="909.667" y1="441.5" y2="481.5" class="link" style="stroke-width:.5;stroke:#505050;opacity:1"/><line x1="678.667" x2="909.667" y1="441.5" y2="521.5" class="link" style="stroke-width:.5;stroke:#505050;opacity:1"/><line x1="678.667" x2="909.667" y1="441.5" y2="561.5" class="link" style="stroke-width:.5;stroke:#505050;opacity:1"/><line x1="678.667" x2="909.667" y1="441.5" y2="601.5" class="link" style="stroke-width:.5;stroke:#505050;opacity:1"/><line x1="678.667" x2="909.667" y1="441.5" y2="641.5" class="link" style="stroke-width:.5;stroke:#505050;opacity:1"/><line x1="678.667" x2="909.667" y1="441.5" y2="681.5" class="link" style="stroke-width:.5;stroke:#505050;opacity:1"/><line x1="678.667" x2="909.667" y1="441.5" y2="721.5" class="link" style="stroke-width:.5;stroke:#505050;opacity:1"/><line x1="678.667" x2="909.667" y1="441.5" y2="761.5" class="link" style="stroke-width:.5;stroke:#505050;opacity:1"/><line x1="678.667" x2="909.667" y1="481.5" y2="321.5" class="link" style="stroke-width:.5;stroke:#505050;opacity:1"/><line x1="678.667" x2="909.667" y1="481.5" y2="361.5" class="link" style="stroke-width:.5;stroke:#505050;opacity:1"/><line x1="678.667" x2="909.667" y1="481.5" y2="401.5" class="link" style="stroke-width:.5;stroke:#505050;opacity:1"/><line x1="678.667" x2="909.667" y1="481.5" y2="441.5" class="link" style="stroke-width:.5;stroke:#505050;opacity:1"/><line x1="678.667" x2="909.667" y1="481.5" y2="481.5" class="link" style="stroke-width:.5;stroke:#505050;opacity:1"/><line x1="678.667" x2="909.667" y1="481.5" y2="521.5" class="link" style="stroke-width:.5;stroke:#505050;opacity:1"/><line x1="678.667" x2="909.667" y1="481.5" y2="561.5" class="link" style="stroke-width:.5;stroke:#505050;opacity:1"/><line x1="678.667" x2="909.667" y1="481.5" y2="601.5" class="link" style="stroke-width:.5;stroke:#505050;opacity:1"/><line x1="678.667" x2="909.667" y1="481.5" y2="641.5" class="link" style="stroke-width:.5;stroke:#505050;opacity:1"/><line x1="678.667" x2="909.667" y1="481.5" y2="681.5" class="link" style="stroke-width:.5;stroke:#505050;opacity:1"/><line x1="678.667" x2="909.667" y1="481.5" y2="721.5" class="link" style="stroke-width:.5;stroke:#505050;opacity:1"/><line x1="678.667" x2="909.667" y1="481.5" y2="761.5" class="link" style="stroke-width:.5;stroke:#505050;opacity:1"/><line x1="678.667" x2="909.667" y1="521.5" y2="321.5" class="link" style="stroke-width:.5;stroke:#505050;opacity:1"/><line x1="678.667" x2="909.667" y1="521.5" y2="361.5" class="link" style="stroke-width:.5;stroke:#505050;opacity:1"/><line x1="678.667" x2="909.667" y1="521.5" y2="401.5" class="link" style="stroke-width:.5;stroke:#505050;opacity:1"/><line x1="678.667" x2="909.667" y1="521.5" y2="441.5" class="link" style="stroke-width:.5;stroke:#505050;opacity:1"/><line x1="678.667" x2="909.667" y1="521.5" y2="481.5" class="link" style="stroke-width:.5;stroke:#505050;opacity:1"/><line x1="678.667" x2="909.667" y1="521.5" y2="521.5" class="link" style="stroke-width:.5;stroke:#505050;opacity:1"/><line x1="678.667" x2="909.667" y1="521.5" y2="561.5" class="link" style="stroke-width:.5;stroke:#505050;opacity:1"/><line x1="678.667" x2="909.667" y1="521.5" y2="601.5" class="link" style="stroke-width:.5;stroke:#505050;opacity:1"/><line x1="678.667" x2="909.667" y1="521.5" y2="641.5" class="link" style="stroke-width:.5;stroke:#505050;opacity:1"/><line x1="678.667" x2="909.667" y1="521.5" y2="681.5" class="link" style="stroke-width:.5;stroke:#505050;opacity:1"/><line x1="678.667" x2="909.667" y1="521.5" y2="721.5" class="link" style="stroke-width:.5;stroke:#505050;opacity:1"/><line x1="678.667" x2="909.667" y1="521.5" y2="761.5" class="link" style="stroke-width:.5;stroke:#505050;opacity:1"/><line x1="678.667" x2="909.667" y1="561.5" y2="321.5" class="link" style="stroke-width:.5;stroke:#505050;opacity:1"/><line x1="678.667" x2="909.667" y1="561.5" y2="361.5" class="link" style="stroke-width:.5;stroke:#505050;opacity:1"/><line x1="678.667" x2="909.667" y1="561.5" y2="401.5" class="link" style="stroke-width:.5;stroke:#505050;opacity:1"/><line x1="678.667" x2="909.667" y1="561.5" y2="441.5" class="link" style="stroke-width:.5;stroke:#505050;opacity:1"/><line x1="678.667" x2="909.667" y1="561.5" y2="481.5" class="link" style="stroke-width:.5;stroke:#505050;opacity:1"/><line x1="678.667" x2="909.667" y1="561.5" y2="521.5" class="link" style="stroke-width:.5;stroke:#505050;opacity:1"/><line x1="678.667" x2="909.667" y1="561.5" y2="561.5" class="link" style="stroke-width:.5;stroke:#505050;opacity:1"/><line x1="678.667" x2="909.667" y1="561.5" y2="601.5" class="link" style="stroke-width:.5;stroke:#505050;opacity:1"/><line x1="678.667" x2="909.667" y1="561.5" y2="641.5" class="link" style="stroke-width:.5;stroke:#505050;opacity:1"/><line x1="678.667" x2="909.667" y1="561.5" y2="681.5" class="link" style="stroke-width:.5;stroke:#505050;opacity:1"/><line x1="678.667" x2="909.667" y1="561.5" y2="721.5" class="link" style="stroke-width:.5;stroke:#505050;opacity:1"/><line x1="678.667" x2="909.667" y1="561.5" y2="761.5" class="link" style="stroke-width:.5;stroke:#505050;opacity:1"/><line x1="678.667" x2="909.667" y1="601.5" y2="321.5" class="link" style="stroke-width:.5;stroke:#505050;opacity:1"/><line x1="678.667" x2="909.667" y1="601.5" y2="361.5" class="link" style="stroke-width:.5;stroke:#505050;opacity:1"/><line x1="678.667" x2="909.667" y1="601.5" y2="401.5" class="link" style="stroke-width:.5;stroke:#505050;opacity:1"/><line x1="678.667" x2="909.667" y1="601.5" y2="441.5" class="link" style="stroke-width:.5;stroke:#505050;opacity:1"/><line x1="678.667" x2="909.667" y1="601.5" y2="481.5" class="link" style="stroke-width:.5;stroke:#505050;opacity:1"/><line x1="678.667" x2="909.667" y1="601.5" y2="521.5" class="link" style="stroke-width:.5;stroke:#505050;opacity:1"/><line x1="678.667" x2="909.667" y1="601.5" y2="561.5" class="link" style="stroke-width:.5;stroke:#505050;opacity:1"/><line x1="678.667" x2="909.667" y1="601.5" y2="601.5" class="link" style="stroke-width:.5;stroke:#505050;opacity:1"/><line x1="678.667" x2="909.667" y1="601.5" y2="641.5" class="link" style="stroke-width:.5;stroke:#505050;opacity:1"/><line x1="678.667" x2="909.667" y1="601.5" y2="681.5" class="link" style="stroke-width:.5;stroke:#505050;opacity:1"/><line x1="678.667" x2="909.667" y1="601.5" y2="721.5" class="link" style="stroke-width:.5;stroke:#505050;opacity:1"/><line x1="678.667" x2="909.667" y1="601.5" y2="761.5" class="link" style="stroke-width:.5;stroke:#505050;opacity:1"/><line x1="678.667" x2="909.667" y1="641.5" y2="321.5" class="link" style="stroke-width:.5;stroke:#505050;opacity:1"/><line x1="678.667" x2="909.667" y1="641.5" y2="361.5" class="link" style="stroke-width:.5;stroke:#505050;opacity:1"/><line x1="678.667" x2="909.667" y1="641.5" y2="401.5" class="link" style="stroke-width:.5;stroke:#505050;opacity:1"/><line x1="678.667" x2="909.667" y1="641.5" y2="441.5" class="link" style="stroke-width:.5;stroke:#505050;opacity:1"/><line x1="678.667" x2="909.667" y1="641.5" y2="481.5" class="link" style="stroke-width:.5;stroke:#505050;opacity:1"/><line x1="678.667" x2="909.667" y1="641.5" y2="521.5" class="link" style="stroke-width:.5;stroke:#505050;opacity:1"/><line x1="678.667" x2="909.667" y1="641.5" y2="561.5" class="link" style="stroke-width:.5;stroke:#505050;opacity:1"/><line x1="678.667" x2="909.667" y1="641.5" y2="601.5" class="link" style="stroke-width:.5;stroke:#505050;opacity:1"/><line x1="678.667" x2="909.667" y1="641.5" y2="641.5" class="link" style="stroke-width:.5;stroke:#505050;opacity:1"/><line x1="678.667" x2="909.667" y1="641.5" y2="681.5" class="link" style="stroke-width:.5;stroke:#505050;opacity:1"/><line x1="678.667" x2="909.667" y1="641.5" y2="721.5" class="link" style="stroke-width:.5;stroke:#505050;opacity:1"/><line x1="678.667" x2="909.667" y1="641.5" y2="761.5" class="link" style="stroke-width:.5;stroke:#505050;opacity:1"/><line x1="678.667" x2="909.667" y1="681.5" y2="321.5" class="link" style="stroke-width:.5;stroke:#505050;opacity:1"/><line x1="678.667" x2="909.667" y1="681.5" y2="361.5" class="link" style="stroke-width:.5;stroke:#505050;opacity:1"/><line x1="678.667" x2="909.667" y1="681.5" y2="401.5" class="link" style="stroke-width:.5;stroke:#505050;opacity:1"/><line x1="678.667" x2="909.667" y1="681.5" y2="441.5" class="link" style="stroke-width:.5;stroke:#505050;opacity:1"/><line x1="678.667" x2="909.667" y1="681.5" y2="481.5" class="link" style="stroke-width:.5;stroke:#505050;opacity:1"/><line x1="678.667" x2="909.667" y1="681.5" y2="521.5" class="link" style="stroke-width:.5;stroke:#505050;opacity:1"/><line x1="678.667" x2="909.667" y1="681.5" y2="561.5" class="link" style="stroke-width:.5;stroke:#505050;opacity:1"/><line x1="678.667" x2="909.667" y1="681.5" y2="601.5" class="link" style="stroke-width:.5;stroke:#505050;opacity:1"/><line x1="678.667" x2="909.667" y1="681.5" y2="641.5" class="link" style="stroke-width:.5;stroke:#505050;opacity:1"/><line x1="678.667" x2="909.667" y1="681.5" y2="681.5" class="link" style="stroke-width:.5;stroke:#505050;opacity:1"/><line x1="678.667" x2="909.667" y1="681.5" y2="721.5" class="link" style="stroke-width:.5;stroke:#505050;opacity:1"/><line x1="678.667" x2="909.667" y1="681.5" y2="761.5" class="link" style="stroke-width:.5;stroke:#505050;opacity:1"/><line x1="678.667" x2="909.667" y1="721.5" y2="321.5" class="link" style="stroke-width:.5;stroke:#505050;opacity:1"/><line x1="678.667" x2="909.667" y1="721.5" y2="361.5" class="link" style="stroke-width:.5;stroke:#505050;opacity:1"/><line x1="678.667" x2="909.667" y1="721.5" y2="401.5" class="link" style="stroke-width:.5;stroke:#505050;opacity:1"/><line x1="678.667" x2="909.667" y1="721.5" y2="441.5" class="link" style="stroke-width:.5;stroke:#505050;opacity:1"/><line x1="678.667" x2="909.667" y1="721.5" y2="481.5" class="link" style="stroke-width:.5;stroke:#505050;opacity:1"/><line x1="678.667" x2="909.667" y1="721.5" y2="521.5" class="link" style="stroke-width:.5;stroke:#505050;opacity:1"/><line x1="678.667" x2="909.667" y1="721.5" y2="561.5" class="link" style="stroke-width:.5;stroke:#505050;opacity:1"/><line x1="678.667" x2="909.667" y1="721.5" y2="601.5" class="link" style="stroke-width:.5;stroke:#505050;opacity:1"/><line x1="678.667" x2="909.667" y1="721.5" y2="641.5" class="link" style="stroke-width:.5;stroke:#505050;opacity:1"/><line x1="678.667" x2="909.667" y1="721.5" y2="681.5" class="link" style="stroke-width:.5;stroke:#505050;opacity:1"/><line x1="678.667" x2="909.667" y1="721.5" y2="721.5" class="link" style="stroke-width:.5;stroke:#505050;opacity:1"/><line x1="678.667" x2="909.667" y1="721.5" y2="761.5" class="link" style="stroke-width:.5;stroke:#505050;opacity:1"/><line x1="678.667" x2="909.667" y1="761.5" y2="321.5" class="link" style="stroke-width:.5;stroke:#505050;opacity:1"/><line x1="678.667" x2="909.667" y1="761.5" y2="361.5" class="link" style="stroke-width:.5;stroke:#505050;opacity:1"/><line x1="678.667" x2="909.667" y1="761.5" y2="401.5" class="link" style="stroke-width:.5;stroke:#505050;opacity:1"/><line x1="678.667" x2="909.667" y1="761.5" y2="441.5" class="link" style="stroke-width:.5;stroke:#505050;opacity:1"/><line x1="678.667" x2="909.667" y1="761.5" y2="481.5" class="link" style="stroke-width:.5;stroke:#505050;opacity:1"/><line x1="678.667" x2="909.667" y1="761.5" y2="521.5" class="link" style="stroke-width:.5;stroke:#505050;opacity:1"/><line x1="678.667" x2="909.667" y1="761.5" y2="561.5" class="link" style="stroke-width:.5;stroke:#505050;opacity:1"/><line x1="678.667" x2="909.667" y1="761.5" y2="601.5" class="link" style="stroke-width:.5;stroke:#505050;opacity:1"/><line x1="678.667" x2="909.667" y1="761.5" y2="641.5" class="link" style="stroke-width:.5;stroke:#505050;opacity:1"/><line x1="678.667" x2="909.667" y1="761.5" y2="681.5" class="link" style="stroke-width:.5;stroke:#505050;opacity:1"/><line x1="678.667" x2="909.667" y1="761.5" y2="721.5" class="link" style="stroke-width:.5;stroke:#505050;opacity:1"/><line x1="678.667" x2="909.667" y1="761.5" y2="761.5" class="link" style="stroke-width:.5;stroke:#505050;opacity:1"/><line x1="678.667" x2="909.667" y1="801.5" y2="321.5" class="link" style="stroke-width:.5;stroke:#505050;opacity:1"/><line x1="678.667" x2="909.667" y1="801.5" y2="361.5" class="link" style="stroke-width:.5;stroke:#505050;opacity:1"/><line x1="678.667" x2="909.667" y1="801.5" y2="401.5" class="link" style="stroke-width:.5;stroke:#505050;opacity:1"/><line x1="678.667" x2="909.667" y1="801.5" y2="441.5" class="link" style="stroke-width:.5;stroke:#505050;opacity:1"/><line x1="678.667" x2="909.667" y1="801.5" y2="481.5" class="link" style="stroke-width:.5;stroke:#505050;opacity:1"/><line x1="678.667" x2="909.667" y1="801.5" y2="521.5" class="link" style="stroke-width:.5;stroke:#505050;opacity:1"/><line x1="678.667" x2="909.667" y1="801.5" y2="561.5" class="link" style="stroke-width:.5;stroke:#505050;opacity:1"/><line x1="678.667" x2="909.667" y1="801.5" y2="601.5" class="link" style="stroke-width:.5;stroke:#505050;opacity:1"/><line x1="678.667" x2="909.667" y1="801.5" y2="641.5" class="link" style="stroke-width:.5;stroke:#505050;opacity:1"/><line x1="678.667" x2="909.667" y1="801.5" y2="681.5" class="link" style="stroke-width:.5;stroke:#505050;opacity:1"/><line x1="678.667" x2="909.667" y1="801.5" y2="721.5" class="link" style="stroke-width:.5;stroke:#505050;opacity:1"/><line x1="678.667" x2="909.667" y1="801.5" y2="761.5" class="link" style="stroke-width:.5;stroke:#505050;opacity:1"/><line x1="678.667" x2="909.667" y1="841.5" y2="321.5" class="link" style="stroke-width:.5;stroke:#505050;opacity:1"/><line x1="678.667" x2="909.667" y1="841.5" y2="361.5" class="link" style="stroke-width:.5;stroke:#505050;opacity:1"/><line x1="678.667" x2="909.667" y1="841.5" y2="401.5" class="link" style="stroke-width:.5;stroke:#505050;opacity:1"/><line x1="678.667" x2="909.667" y1="841.5" y2="441.5" class="link" style="stroke-width:.5;stroke:#505050;opacity:1"/><line x1="678.667" x2="909.667" y1="841.5" y2="481.5" class="link" style="stroke-width:.5;stroke:#505050;opacity:1"/><line x1="678.667" x2="909.667" y1="841.5" y2="521.5" class="link" style="stroke-width:.5;stroke:#505050;opacity:1"/><line x1="678.667" x2="909.667" y1="841.5" y2="561.5" class="link" style="stroke-width:.5;stroke:#505050;opacity:1"/><line x1="678.667" x2="909.667" y1="841.5" y2="601.5" class="link" style="stroke-width:.5;stroke:#505050;opacity:1"/><line x1="678.667" x2="909.667" y1="841.5" y2="641.5" class="link" style="stroke-width:.5;stroke:#505050;opacity:1"/><line x1="678.667" x2="909.667" y1="841.5" y2="681.5" class="link" style="stroke-width:.5;stroke:#505050;opacity:1"/><line x1="678.667" x2="909.667" y1="841.5" y2="721.5" class="link" style="stroke-width:.5;stroke:#505050;opacity:1"/><line x1="678.667" x2="909.667" y1="841.5" y2="761.5" class="link" style="stroke-width:.5;stroke:#505050;opacity:1"/><line x1="909.667" x2="1140.667" y1="321.5" y2="361.5" class="link" style="stroke-width:.5;stroke:#505050;opacity:1"/><line x1="909.667" x2="1140.667" y1="321.5" y2="401.5" class="link" style="stroke-width:.5;stroke:#505050;opacity:1"/><line x1="909.667" x2="1140.667" y1="321.5" y2="441.5" class="link" style="stroke-width:.5;stroke:#505050;opacity:1"/><line x1="909.667" x2="1140.667" y1="321.5" y2="481.5" class="link" style="stroke-width:.5;stroke:#505050;opacity:1"/><line x1="909.667" x2="1140.667" y1="321.5" y2="521.5" class="link" style="stroke-width:.5;stroke:#505050;opacity:1"/><line x1="909.667" x2="1140.667" y1="321.5" y2="561.5" class="link" style="stroke-width:.5;stroke:#505050;opacity:1"/><line x1="909.667" x2="1140.667" y1="321.5" y2="601.5" class="link" style="stroke-width:.5;stroke:#505050;opacity:1"/><line x1="909.667" x2="1140.667" y1="321.5" y2="641.5" class="link" style="stroke-width:.5;stroke:#505050;opacity:1"/><line x1="909.667" x2="1140.667" y1="321.5" y2="681.5" class="link" style="stroke-width:.5;stroke:#505050;opacity:1"/><line x1="909.667" x2="1140.667" y1="321.5" y2="721.5" class="link" style="stroke-width:.5;stroke:#505050;opacity:1"/><line x1="909.667" x2="1140.667" y1="361.5" y2="361.5" class="link" style="stroke-width:.5;stroke:#505050;opacity:1"/><line x1="909.667" x2="1140.667" y1="361.5" y2="401.5" class="link" style="stroke-width:.5;stroke:#505050;opacity:1"/><line x1="909.667" x2="1140.667" y1="361.5" y2="441.5" class="link" style="stroke-width:.5;stroke:#505050;opacity:1"/><line x1="909.667" x2="1140.667" y1="361.5" y2="481.5" class="link" style="stroke-width:.5;stroke:#505050;opacity:1"/><line x1="909.667" x2="1140.667" y1="361.5" y2="521.5" class="link" style="stroke-width:.5;stroke:#505050;opacity:1"/><line x1="909.667" x2="1140.667" y1="361.5" y2="561.5" class="link" style="stroke-width:.5;stroke:#505050;opacity:1"/><line x1="909.667" x2="1140.667" y1="361.5" y2="601.5" class="link" style="stroke-width:.5;stroke:#505050;opacity:1"/><line x1="909.667" x2="1140.667" y1="361.5" y2="641.5" class="link" style="stroke-width:.5;stroke:#505050;opacity:1"/><line x1="909.667" x2="1140.667" y1="361.5" y2="681.5" class="link" style="stroke-width:.5;stroke:#505050;opacity:1"/><line x1="909.667" x2="1140.667" y1="361.5" y2="721.5" class="link" style="stroke-width:.5;stroke:#505050;opacity:1"/><line x1="909.667" x2="1140.667" y1="401.5" y2="361.5" class="link" style="stroke-width:.5;stroke:#505050;opacity:1"/><line x1="909.667" x2="1140.667" y1="401.5" y2="401.5" class="link" style="stroke-width:.5;stroke:#505050;opacity:1"/><line x1="909.667" x2="1140.667" y1="401.5" y2="441.5" class="link" style="stroke-width:.5;stroke:#505050;opacity:1"/><line x1="909.667" x2="1140.667" y1="401.5" y2="481.5" class="link" style="stroke-width:.5;stroke:#505050;opacity:1"/><line x1="909.667" x2="1140.667" y1="401.5" y2="521.5" class="link" style="stroke-width:.5;stroke:#505050;opacity:1"/><line x1="909.667" x2="1140.667" y1="401.5" y2="561.5" class="link" style="stroke-width:.5;stroke:#505050;opacity:1"/><line x1="909.667" x2="1140.667" y1="401.5" y2="601.5" class="link" style="stroke-width:.5;stroke:#505050;opacity:1"/><line x1="909.667" x2="1140.667" y1="401.5" y2="641.5" class="link" style="stroke-width:.5;stroke:#505050;opacity:1"/><line x1="909.667" x2="1140.667" y1="401.5" y2="681.5" class="link" style="stroke-width:.5;stroke:#505050;opacity:1"/><line x1="909.667" x2="1140.667" y1="401.5" y2="721.5" class="link" style="stroke-width:.5;stroke:#505050;opacity:1"/><line x1="909.667" x2="1140.667" y1="441.5" y2="361.5" class="link" style="stroke-width:.5;stroke:#505050;opacity:1"/><line x1="909.667" x2="1140.667" y1="441.5" y2="401.5" class="link" style="stroke-width:.5;stroke:#505050;opacity:1"/><line x1="909.667" x2="1140.667" y1="441.5" y2="441.5" class="link" style="stroke-width:.5;stroke:#505050;opacity:1"/><line x1="909.667" x2="1140.667" y1="441.5" y2="481.5" class="link" style="stroke-width:.5;stroke:#505050;opacity:1"/><line x1="909.667" x2="1140.667" y1="441.5" y2="521.5" class="link" style="stroke-width:.5;stroke:#505050;opacity:1"/><line x1="909.667" x2="1140.667" y1="441.5" y2="561.5" class="link" style="stroke-width:.5;stroke:#505050;opacity:1"/><line x1="909.667" x2="1140.667" y1="441.5" y2="601.5" class="link" style="stroke-width:.5;stroke:#505050;opacity:1"/><line x1="909.667" x2="1140.667" y1="441.5" y2="641.5" class="link" style="stroke-width:.5;stroke:#505050;opacity:1"/><line x1="909.667" x2="1140.667" y1="441.5" y2="681.5" class="link" style="stroke-width:.5;stroke:#505050;opacity:1"/><line x1="909.667" x2="1140.667" y1="441.5" y2="721.5" class="link" style="stroke-width:.5;stroke:#505050;opacity:1"/><line x1="909.667" x2="1140.667" y1="481.5" y2="361.5" class="link" style="stroke-width:.5;stroke:#505050;opacity:1"/><line x1="909.667" x2="1140.667" y1="481.5" y2="401.5" class="link" style="stroke-width:.5;stroke:#505050;opacity:1"/><line x1="909.667" x2="1140.667" y1="481.5" y2="441.5" class="link" style="stroke-width:.5;stroke:#505050;opacity:1"/><line x1="909.667" x2="1140.667" y1="481.5" y2="481.5" class="link" style="stroke-width:.5;stroke:#505050;opacity:1"/><line x1="909.667" x2="1140.667" y1="481.5" y2="521.5" class="link" style="stroke-width:.5;stroke:#505050;opacity:1"/><line x1="909.667" x2="1140.667" y1="481.5" y2="561.5" class="link" style="stroke-width:.5;stroke:#505050;opacity:1"/><line x1="909.667" x2="1140.667" y1="481.5" y2="601.5" class="link" style="stroke-width:.5;stroke:#505050;opacity:1"/><line x1="909.667" x2="1140.667" y1="481.5" y2="641.5" class="link" style="stroke-width:.5;stroke:#505050;opacity:1"/><line x1="909.667" x2="1140.667" y1="481.5" y2="681.5" class="link" style="stroke-width:.5;stroke:#505050;opacity:1"/><line x1="909.667" x2="1140.667" y1="481.5" y2="721.5" class="link" style="stroke-width:.5;stroke:#505050;opacity:1"/><line x1="909.667" x2="1140.667" y1="521.5" y2="361.5" class="link" style="stroke-width:.5;stroke:#505050;opacity:1"/><line x1="909.667" x2="1140.667" y1="521.5" y2="401.5" class="link" style="stroke-width:.5;stroke:#505050;opacity:1"/><line x1="909.667" x2="1140.667" y1="521.5" y2="441.5" class="link" style="stroke-width:.5;stroke:#505050;opacity:1"/><line x1="909.667" x2="1140.667" y1="521.5" y2="481.5" class="link" style="stroke-width:.5;stroke:#505050;opacity:1"/><line x1="909.667" x2="1140.667" y1="521.5" y2="521.5" class="link" style="stroke-width:.5;stroke:#505050;opacity:1"/><line x1="909.667" x2="1140.667" y1="521.5" y2="561.5" class="link" style="stroke-width:.5;stroke:#505050;opacity:1"/><line x1="909.667" x2="1140.667" y1="521.5" y2="601.5" class="link" style="stroke-width:.5;stroke:#505050;opacity:1"/><line x1="909.667" x2="1140.667" y1="521.5" y2="641.5" class="link" style="stroke-width:.5;stroke:#505050;opacity:1"/><line x1="909.667" x2="1140.667" y1="521.5" y2="681.5" class="link" style="stroke-width:.5;stroke:#505050;opacity:1"/><line x1="909.667" x2="1140.667" y1="521.5" y2="721.5" class="link" style="stroke-width:.5;stroke:#505050;opacity:1"/><line x1="909.667" x2="1140.667" y1="561.5" y2="361.5" class="link" style="stroke-width:.5;stroke:#505050;opacity:1"/><line x1="909.667" x2="1140.667" y1="561.5" y2="401.5" class="link" style="stroke-width:.5;stroke:#505050;opacity:1"/><line x1="909.667" x2="1140.667" y1="561.5" y2="441.5" class="link" style="stroke-width:.5;stroke:#505050;opacity:1"/><line x1="909.667" x2="1140.667" y1="561.5" y2="481.5" class="link" style="stroke-width:.5;stroke:#505050;opacity:1"/><line x1="909.667" x2="1140.667" y1="561.5" y2="521.5" class="link" style="stroke-width:.5;stroke:#505050;opacity:1"/><line x1="909.667" x2="1140.667" y1="561.5" y2="561.5" class="link" style="stroke-width:.5;stroke:#505050;opacity:1"/><line x1="909.667" x2="1140.667" y1="561.5" y2="601.5" class="link" style="stroke-width:.5;stroke:#505050;opacity:1"/><line x1="909.667" x2="1140.667" y1="561.5" y2="641.5" class="link" style="stroke-width:.5;stroke:#505050;opacity:1"/><line x1="909.667" x2="1140.667" y1="561.5" y2="681.5" class="link" style="stroke-width:.5;stroke:#505050;opacity:1"/><line x1="909.667" x2="1140.667" y1="561.5" y2="721.5" class="link" style="stroke-width:.5;stroke:#505050;opacity:1"/><line x1="909.667" x2="1140.667" y1="601.5" y2="361.5" class="link" style="stroke-width:.5;stroke:#505050;opacity:1"/><line x1="909.667" x2="1140.667" y1="601.5" y2="401.5" class="link" style="stroke-width:.5;stroke:#505050;opacity:1"/><line x1="909.667" x2="1140.667" y1="601.5" y2="441.5" class="link" style="stroke-width:.5;stroke:#505050;opacity:1"/><line x1="909.667" x2="1140.667" y1="601.5" y2="481.5" class="link" style="stroke-width:.5;stroke:#505050;opacity:1"/><line x1="909.667" x2="1140.667" y1="601.5" y2="521.5" class="link" style="stroke-width:.5;stroke:#505050;opacity:1"/><line x1="909.667" x2="1140.667" y1="601.5" y2="561.5" class="link" style="stroke-width:.5;stroke:#505050;opacity:1"/><line x1="909.667" x2="1140.667" y1="601.5" y2="601.5" class="link" style="stroke-width:.5;stroke:#505050;opacity:1"/><line x1="909.667" x2="1140.667" y1="601.5" y2="641.5" class="link" style="stroke-width:.5;stroke:#505050;opacity:1"/><line x1="909.667" x2="1140.667" y1="601.5" y2="681.5" class="link" style="stroke-width:.5;stroke:#505050;opacity:1"/><line x1="909.667" x2="1140.667" y1="601.5" y2="721.5" class="link" style="stroke-width:.5;stroke:#505050;opacity:1"/><line x1="909.667" x2="1140.667" y1="641.5" y2="361.5" class="link" style="stroke-width:.5;stroke:#505050;opacity:1"/><line x1="909.667" x2="1140.667" y1="641.5" y2="401.5" class="link" style="stroke-width:.5;stroke:#505050;opacity:1"/><line x1="909.667" x2="1140.667" y1="641.5" y2="441.5" class="link" style="stroke-width:.5;stroke:#505050;opacity:1"/><line x1="909.667" x2="1140.667" y1="641.5" y2="481.5" class="link" style="stroke-width:.5;stroke:#505050;opacity:1"/><line x1="909.667" x2="1140.667" y1="641.5" y2="521.5" class="link" style="stroke-width:.5;stroke:#505050;opacity:1"/><line x1="909.667" x2="1140.667" y1="641.5" y2="561.5" class="link" style="stroke-width:.5;stroke:#505050;opacity:1"/><line x1="909.667" x2="1140.667" y1="641.5" y2="601.5" class="link" style="stroke-width:.5;stroke:#505050;opacity:1"/><line x1="909.667" x2="1140.667" y1="641.5" y2="641.5" class="link" style="stroke-width:.5;stroke:#505050;opacity:1"/><line x1="909.667" x2="1140.667" y1="641.5" y2="681.5" class="link" style="stroke-width:.5;stroke:#505050;opacity:1"/><line x1="909.667" x2="1140.667" y1="641.5" y2="721.5" class="link" style="stroke-width:.5;stroke:#505050;opacity:1"/><line x1="909.667" x2="1140.667" y1="681.5" y2="361.5" class="link" style="stroke-width:.5;stroke:#505050;opacity:1"/><line x1="909.667" x2="1140.667" y1="681.5" y2="401.5" class="link" style="stroke-width:.5;stroke:#505050;opacity:1"/><line x1="909.667" x2="1140.667" y1="681.5" y2="441.5" class="link" style="stroke-width:.5;stroke:#505050;opacity:1"/><line x1="909.667" x2="1140.667" y1="681.5" y2="481.5" class="link" style="stroke-width:.5;stroke:#505050;opacity:1"/><line x1="909.667" x2="1140.667" y1="681.5" y2="521.5" class="link" style="stroke-width:.5;stroke:#505050;opacity:1"/><line x1="909.667" x2="1140.667" y1="681.5" y2="561.5" class="link" style="stroke-width:.5;stroke:#505050;opacity:1"/><line x1="909.667" x2="1140.667" y1="681.5" y2="601.5" class="link" style="stroke-width:.5;stroke:#505050;opacity:1"/><line x1="909.667" x2="1140.667" y1="681.5" y2="641.5" class="link" style="stroke-width:.5;stroke:#505050;opacity:1"/><line x1="909.667" x2="1140.667" y1="681.5" y2="681.5" class="link" style="stroke-width:.5;stroke:#505050;opacity:1"/><line x1="909.667" x2="1140.667" y1="681.5" y2="721.5" class="link" style="stroke-width:.5;stroke:#505050;opacity:1"/><line x1="909.667" x2="1140.667" y1="721.5" y2="361.5" class="link" style="stroke-width:.5;stroke:#505050;opacity:1"/><line x1="909.667" x2="1140.667" y1="721.5" y2="401.5" class="link" style="stroke-width:.5;stroke:#505050;opacity:1"/><line x1="909.667" x2="1140.667" y1="721.5" y2="441.5" class="link" style="stroke-width:.5;stroke:#505050;opacity:1"/><line x1="909.667" x2="1140.667" y1="721.5" y2="481.5" class="link" style="stroke-width:.5;stroke:#505050;opacity:1"/><line x1="909.667" x2="1140.667" y1="721.5" y2="521.5" class="link" style="stroke-width:.5;stroke:#505050;opacity:1"/><line x1="909.667" x2="1140.667" y1="721.5" y2="561.5" class="link" style="stroke-width:.5;stroke:#505050;opacity:1"/><line x1="909.667" x2="1140.667" y1="721.5" y2="601.5" class="link" style="stroke-width:.5;stroke:#505050;opacity:1"/><line x1="909.667" x2="1140.667" y1="721.5" y2="641.5" class="link" style="stroke-width:.5;stroke:#505050;opacity:1"/><line x1="909.667" x2="1140.667" y1="721.5" y2="681.5" class="link" style="stroke-width:.5;stroke:#505050;opacity:1"/><line x1="909.667" x2="1140.667" y1="721.5" y2="721.5" class="link" style="stroke-width:.5;stroke:#505050;opacity:1"/><line x1="909.667" x2="1140.667" y1="761.5" y2="361.5" class="link" style="stroke-width:.5;stroke:#505050;opacity:1"/><line x1="909.667" x2="1140.667" y1="761.5" y2="401.5" class="link" style="stroke-width:.5;stroke:#505050;opacity:1"/><line x1="909.667" x2="1140.667" y1="761.5" y2="441.5" class="link" style="stroke-width:.5;stroke:#505050;opacity:1"/><line x1="909.667" x2="1140.667" y1="761.5" y2="481.5" class="link" style="stroke-width:.5;stroke:#505050;opacity:1"/><line x1="909.667" x2="1140.667" y1="761.5" y2="521.5" class="link" style="stroke-width:.5;stroke:#505050;opacity:1"/><line x1="909.667" x2="1140.667" y1="761.5" y2="561.5" class="link" style="stroke-width:.5;stroke:#505050;opacity:1"/><line x1="909.667" x2="1140.667" y1="761.5" y2="601.5" class="link" style="stroke-width:.5;stroke:#505050;opacity:1"/><line x1="909.667" x2="1140.667" y1="761.5" y2="641.5" class="link" style="stroke-width:.5;stroke:#505050;opacity:1"/><line x1="909.667" x2="1140.667" y1="761.5" y2="681.5" class="link" style="stroke-width:.5;stroke:#505050;opacity:1"/><line x1="909.667" x2="1140.667" y1="761.5" y2="721.5" class="link" style="stroke-width:.5;stroke:#505050;opacity:1"/><line x1="1140.667" x2="1371.667" y1="361.5" y2="541.5" class="link" style="stroke-width:.5;stroke:#505050;opacity:1"/><line x1="1140.667" x2="1371.667" y1="401.5" y2="541.5" class="link" style="stroke-width:.5;stroke:#505050;opacity:1"/><line x1="1140.667" x2="1371.667" y1="441.5" y2="541.5" class="link" style="stroke-width:.5;stroke:#505050;opacity:1"/><line x1="1140.667" x2="1371.667" y1="481.5" y2="541.5" class="link" style="stroke-width:.5;stroke:#505050;opacity:1"/><line x1="1140.667" x2="1371.667" y1="521.5" y2="541.5" class="link" style="stroke-width:.5;stroke:#505050;opacity:1"/><line x1="1140.667" x2="1371.667" y1="561.5" y2="541.5" class="link" style="stroke-width:.5;stroke:#505050;opacity:1"/><line x1="1140.667" x2="1371.667" y1="601.5" y2="541.5" class="link" style="stroke-width:.5;stroke:#505050;opacity:1"/><line x1="1140.667" x2="1371.667" y1="641.5" y2="541.5" class="link" style="stroke-width:.5;stroke:#505050;opacity:1"/><line x1="1140.667" x2="1371.667" y1="681.5" y2="541.5" class="link" style="stroke-width:.5;stroke:#505050;opacity:1"/><line x1="1140.667" x2="1371.667" y1="721.5" y2="541.5" class="link" style="stroke-width:.5;stroke:#505050;opacity:1"/><circle id="0_0" cx="678.667" cy="241.5" r="10" class="node" style="fill:#fff;stroke:#333;stroke-width:1"/><circle id="0_1" cx="678.667" cy="281.5" r="10" class="node" style="fill:#fff;stroke:#333;stroke-width:1"/><circle id="0_2" cx="678.667" cy="321.5" r="10" class="node" style="fill:#fff;stroke:#333;stroke-width:1"/><circle id="0_3" cx="678.667" cy="361.5" r="10" class="node" style="fill:#fff;stroke:#333;stroke-width:1"/><circle id="0_4" cx="678.667" cy="401.5" r="10" class="node" style="fill:#fff;stroke:#333;stroke-width:1"/><circle id="0_5" cx="678.667" cy="441.5" r="10" class="node" style="fill:#fff;stroke:#333;stroke-width:1"/><circle id="0_6" cx="678.667" cy="481.5" r="10" class="node" style="fill:#fff;stroke:#333;stroke-width:1"/><circle id="0_7" cx="678.667" cy="521.5" r="10" class="node" style="fill:#fff;stroke:#333;stroke-width:1"/><circle id="0_8" cx="678.667" cy="561.5" r="10" class="node" style="fill:#fff;stroke:#333;stroke-width:1"/><circle id="0_9" cx="678.667" cy="601.5" r="10" class="node" style="fill:#fff;stroke:#333;stroke-width:1"/><circle id="0_10" cx="678.667" cy="641.5" r="10" class="node" style="fill:#fff;stroke:#333;stroke-width:1"/><circle id="0_11" cx="678.667" cy="681.5" r="10" class="node" style="fill:#fff;stroke:#333;stroke-width:1"/><circle id="0_12" cx="678.667" cy="721.5" r="10" class="node" style="fill:#fff;stroke:#333;stroke-width:1"/><circle id="0_13" cx="678.667" cy="761.5" r="10" class="node" style="fill:#fff;stroke:#333;stroke-width:1"/><circle id="0_14" cx="678.667" cy="801.5" r="10" class="node" style="fill:#fff;stroke:#333;stroke-width:1"/><circle id="0_15" cx="678.667" cy="841.5" r="10" class="node" style="fill:#fff;stroke:#333;stroke-width:1"/><circle id="1_0" cx="909.667" cy="321.5" r="10" class="node" style="fill:#fff;stroke:#333;stroke-width:1"/><circle id="1_1" cx="909.667" cy="361.5" r="10" class="node" style="fill:#fff;stroke:#333;stroke-width:1"/><circle id="1_2" cx="909.667" cy="401.5" r="10" class="node" style="fill:#fff;stroke:#333;stroke-width:1"/><circle id="1_3" cx="909.667" cy="441.5" r="10" class="node" style="fill:#fff;stroke:#333;stroke-width:1"/><circle id="1_4" cx="909.667" cy="481.5" r="10" class="node" style="fill:#fff;stroke:#333;stroke-width:1"/><circle id="1_5" cx="909.667" cy="521.5" r="10" class="node" style="fill:#fff;stroke:#333;stroke-width:1"/><circle id="1_6" cx="909.667" cy="561.5" r="10" class="node" style="fill:#fff;stroke:#333;stroke-width:1"/><circle id="1_7" cx="909.667" cy="601.5" r="10" class="node" style="fill:#fff;stroke:#333;stroke-width:1"/><circle id="1_8" cx="909.667" cy="641.5" r="10" class="node" style="fill:#fff;stroke:#333;stroke-width:1"/><circle id="1_9" cx="909.667" cy="681.5" r="10" class="node" style="fill:#fff;stroke:#333;stroke-width:1"/><circle id="1_10" cx="909.667" cy="721.5" r="10" class="node" style="fill:#fff;stroke:#333;stroke-width:1"/><circle id="1_11" cx="909.667" cy="761.5" r="10" class="node" style="fill:#fff;stroke:#333;stroke-width:1"/><circle id="2_0" cx="1140.667" cy="361.5" r="10" class="node" style="fill:#fff;stroke:#333;stroke-width:1"/><circle id="2_1" cx="1140.667" cy="401.5" r="10" class="node" style="fill:#fff;stroke:#333;stroke-width:1"/><circle id="2_2" cx="1140.667" cy="441.5" r="10" class="node" style="fill:#fff;stroke:#333;stroke-width:1"/><circle id="2_3" cx="1140.667" cy="481.5" r="10" class="node" style="fill:#fff;stroke:#333;stroke-width:1"/><circle id="2_4" cx="1140.667" cy="521.5" r="10" class="node" style="fill:#fff;stroke:#333;stroke-width:1"/><circle id="2_5" cx="1140.667" cy="561.5" r="10" class="node" style="fill:#fff;stroke:#333;stroke-width:1"/><circle id="2_6" cx="1140.667" cy="601.5" r="10" class="node" style="fill:#fff;stroke:#333;stroke-width:1"/><circle id="2_7" cx="1140.667" cy="641.5" r="10" class="node" style="fill:#fff;stroke:#333;stroke-width:1"/><circle id="2_8" cx="1140.667" cy="681.5" r="10" class="node" style="fill:#fff;stroke:#333;stroke-width:1"/><circle id="2_9" cx="1140.667" cy="721.5" r="10" class="node" style="fill:#fff;stroke:#333;stroke-width:1"/><circle id="3_0" cx="1371.667" cy="541.5" r="10" class="node" style="fill:#fff;stroke:#333;stroke-width:1"/><text x="643.667" y="881.5" class="text" dy=".35em" style="font-size:12px">Input Layer ∈ ℝ¹⁶</text><text x="874.667" y="881.5" class="text" dy=".35em" style="font-size:12px">Hidden Layer ∈ ℝ¹²</text><text x="1105.667" y="881.5" class="text" dy=".35em" style="font-size:12px">Hidden Layer ∈ ℝ¹⁰</text><text x="1336.667" y="881.5" class="text" dy=".35em" style="font-size:12px">Output Layer ∈ ℝ¹</text></g></svg>